<?xml version="1.0" encoding="UTF-8"?>
<svg id="Ebene_1" data-name="Ebene 1" xmlns="http://www.w3.org/2000/svg" viewBox="0 0 512 512">
  <defs>
    <style>
      .cls-1 {
        fill: #73c9eb;
      }

      .cls-2 {
        fill: #e1f7e7;
      }
    </style>
  </defs>
  <rect x="-11.6109" y="-5.7736" width="529.2948" height="529.2948"/>
  <g>
    <g>
      <g>
        <path class="cls-2" d="M65.1542,190.5434c0-14.1485,11.7419-20.4558,28.6738-20.4558,19.8277,0,44.5875,1.514,55.7014,0l-.7603,32.9646c-10.8626-7.1999-23.4904-10.2345-30.1944-10.2345-6.0627,0-9.2163.7603-9.2163,3.2859,0,8.7139,41.6851-1.2694,41.6851,27.6557,0,15.4046-9.6064,27.1598-31.4506,27.1598-17.8112,0-38.2802-2.0165-55.5824-.5091l.7603-41.5529c9.9833,5.8115,23.4904,9.2163,31.0804,9.2163,6.5718,0,10.3535-1.1372,10.3535-4.1718,0-8.456-41.057,2.5256-41.057-23.3714h.0132v.0132h-.0066Z"/>
        <path class="cls-2" d="M156.9871,172.6132h49.5197c-1.7653,10.8626-2.6446,21.0971-2.6446,25.6392,0,7.4577,2.4066,11.3717,6.0627,11.3717s6.1883-3.914,6.1883-11.3717c0-4.5421-.8793-14.7766-2.6578-25.6392h42.1942c-3.795,17.6922-2.1487,34.8621-2.1487,44.971,0,22.9946-17.9302,33.3481-48.2503,33.3481-31.8275,0-46.1082-8.5883-46.1082-31.5828,0-10.1023,1.6462-29.0507-2.1487-46.7363h-.0066Z"/>
        <path class="cls-2" d="M263.7156,207.6009c0-12.6278-1.0115-24.2507-2.9024-34.9943h59.8732c20.8459,0,34.353,8.456,34.353,22.9946,0,12.3766-10.4857,20.2178-25.3879,20.2178-2.1487,0-4.1718-.2512-6.0627-.2512-1.2694,0-2.0165.7603-2.0165,1.7653,0,3.914,5.8114,5.3024,10.3535,5.3024,8.9651,0,18.0625-3.914,22.8624-7.9602h.5091c1.514,3.914,2.2743,8.456,2.2743,12.7601,0,13.1369-10.1023,23.4904-24.2507,23.4904-13.2692,0-20.8459-5.0511-23.9995-22.2343-.6281-3.2859-1.8975-4.7999-3.6627-4.7999-1.514,0-2.4066,1.2694-2.4066,3.1536,0,4.5421.8793,12.5088,2.4066,21.3483h-44.8388c1.8975-14.5253,2.9024-28.1647,2.9024-40.8058v.0132h-.0066ZM308.6799,211.0124c3.914,0,6.3205-3.6627,6.3205-8.456,0-5.8115-2.1487-10.7436-6.0627-10.7436s-6.1883,4.9321-6.1883,10.7436c0,4.7999,1.8975,8.456,5.9304,8.456h0Z"/>
        <path class="cls-2" d="M362.3648,172.6132h90.1866l-2.7768,27.9135c-12.6278-3.1536-27.2854-5.8115-37.3877-5.8115-5.5602,0-7.9602,1.7653-7.9602,5.1834s2.0165,4.9321,5.428,4.9321h30.439v20.0855c-12.132,0-26.2672-2.7768-31.7085-2.7768-2.6578,0-4.1718,1.2694-4.1718,3.795,0,8.0858,7.1999,12.251,7.1999,22.4855h-49.2618c3.795-29.0507,3.795-54.313,0-75.7869l.0132-.0132h0v-.0066Z"/>
      </g>
      <g>
        <path class="cls-2" d="M66.1195,276.5318h30.1085c17.1501,0,20.3037,11.3122,21.3483,26.2606.2314,3.8479.8132,7.9271,3.6165,7.9271,3.0346,0,3.8479-4.0792,4.3106-7.9271,2.0958-14.9353,5.3685-26.2606,22.5186-26.2606h28.9383c-3.1536,19.5963-2.3405,50.1676,2.8032,70.0085h-42.5909c3.2661-15.8674,6.8825-40.8389-.4628-40.8389-6.2941,0-5.0181,24.383-5.9569,40.8389h-26.5978c-.9388-16.4559.3504-40.8389-5.9569-40.8389-7.3453,0-3.7355,24.9648-.4628,40.8389h-34.4191c5.1371-19.8409,5.9437-50.4122,2.8033-70.0085h0Z"/>
        <path class="cls-2" d="M202.8639,276.5318h60.0914c2.3404,19.8409,17.5005,43.1727,20.9979,70.0085h-50.4122c1.1702-11.0808,1.514-17.5005,1.514-22.2872,0-4.3107-1.8644-7.1139-5.1305-7.1139s-5.1371,2.8032-5.1371,7.1139c0,4.7867.4628,11.2064,1.514,22.2872h-40.938c3.4975-27.0738,20.9979-50.2866,17.5005-70.0085h0ZM229.9377,306.1643c3.6165,0,5.1305-3.3851,5.1305-7.8213,0-5.3685-1.276-9.9172-4.8991-9.9172s-5.1371,4.5553-5.1371,9.9172c0,4.4363,1.1702,7.8213,4.8991,7.8213h.0132-.0066Z"/>
        <path class="cls-2" d="M346.3717,298.4619c-4.4363,0-7.0015,1.9834-7.0015,6.5255,0,9.6858,5.2495,23.2127,6.7701,41.5463h-48.4222c1.514-19.2525,6.7701-31.5101,6.7701-41.5463,0-4.5553-2.2148-6.5255-6.7701-6.5255s-11.0808,1.514-16.3303,3.4974l-1.1702-25.4342h83.4297l-1.1702,25.4342c-4.6677-1.9834-11.3122-3.4974-16.0988-3.4974h-.0066Z"/>
        <path class="cls-2" d="M369.2407,276.5318h80.7389l-1.633,20.8855c-8.1717-2.6776-21.2426-4.0792-30.5713-4.0792-7.3585,0-9.6858,1.5206-9.6858,4.5553,0,2.3404,1.8644,3.6164,4.7867,3.6164,4.6677,0,19.6095-2.1091,29.5201-2.1091v16.2245c-11.2064,0-25.3218-1.633-30.2143-1.633-2.4462,0-3.9735,1.4016-3.9735,3.6164,0,2.909,2.0958,4.3107,10.7303,4.3107,8.1717,0,21.7054-1.4016,31.0341-3.7355l2.5719,28.3565h-83.3041c3.4974-26.8292,3.4974-50.1676,0-70.0085h0Z"/>
      </g>
    </g>
    <g>
      <g>
        <path class="cls-1" d="M61.2799,185.9154c0-14.1485,11.7419-20.4558,28.6738-20.4558,19.8277,0,44.5875,1.514,55.7013,0l-.7603,32.9646c-10.8626-7.1999-23.4904-10.2345-30.1944-10.2345-6.0627,0-9.2163.7603-9.2163,3.2859,0,8.7139,41.6851-1.2694,41.6851,27.6557,0,15.4046-9.6064,27.1598-31.4506,27.1598-17.8112,0-38.2802-2.0165-55.5824-.5091l.7603-41.5529c9.9833,5.8115,23.4904,9.2163,31.0804,9.2163,6.5718,0,10.3535-1.1372,10.3535-4.1718,0-8.456-41.057,2.5256-41.057-23.3714h.0132v.0132h-.0066Z"/>
        <path class="cls-1" d="M153.1128,167.9852h49.5197c-1.7653,10.8626-2.6446,21.0971-2.6446,25.6392,0,7.4577,2.4066,11.3717,6.0627,11.3717s6.1883-3.914,6.1883-11.3717c0-4.5421-.8793-14.7766-2.6578-25.6392h42.1942c-3.795,17.6922-2.1487,34.8621-2.1487,44.971,0,22.9946-17.9302,33.3481-48.2503,33.3481-31.8275,0-46.1082-8.5883-46.1082-31.5828,0-10.1023,1.6462-29.0507-2.1487-46.7363h-.0066Z"/>
        <path class="cls-1" d="M259.8412,202.9729c0-12.6278-1.0115-24.2507-2.9024-34.9943h59.8732c20.8459,0,34.353,8.456,34.353,22.9946,0,12.3766-10.4857,20.2178-25.3879,20.2178-2.1487,0-4.1718-.2512-6.0627-.2512-1.2694,0-2.0165.7603-2.0165,1.7653,0,3.914,5.8114,5.3024,10.3535,5.3024,8.9651,0,18.0625-3.914,22.8624-7.9602h.5091c1.514,3.914,2.2743,8.456,2.2743,12.7601,0,13.1369-10.1023,23.4904-24.2507,23.4904-13.2692,0-20.8459-5.0511-23.9995-22.2343-.6281-3.2859-1.8975-4.7999-3.6627-4.7999-1.514,0-2.4066,1.2694-2.4066,3.1536,0,4.5421.8793,12.5088,2.4066,21.3483h-44.8388c1.8975-14.5253,2.9024-28.1647,2.9024-40.8058v.0132h-.0067ZM304.8056,206.3844c3.914,0,6.3205-3.6627,6.3205-8.456,0-5.8115-2.1487-10.7436-6.0627-10.7436s-6.1883,4.9321-6.1883,10.7436c0,4.7999,1.8975,8.456,5.9304,8.456h0Z"/>
        <path class="cls-1" d="M358.4905,167.9852h90.1866l-2.7768,27.9135c-12.6278-3.1536-27.2854-5.8115-37.3877-5.8115-5.5602,0-7.9602,1.7653-7.9602,5.1834s2.0165,4.9321,5.428,4.9321h30.439v20.0855c-12.132,0-26.2672-2.7768-31.7085-2.7768-2.6578,0-4.1718,1.2694-4.1718,3.795,0,8.0858,7.1999,12.251,7.1999,22.4855h-49.2618c3.795-29.0507,3.795-54.313,0-75.7869l.0132-.0132h0v-.0066Z"/>
      </g>
      <g>
        <path class="cls-1" d="M62.2518,271.9038h30.1085c17.1501,0,20.3037,11.3122,21.3483,26.2606.2314,3.8479.8132,7.9271,3.6165,7.9271,3.0346,0,3.8479-4.0792,4.3106-7.9271,2.0958-14.9353,5.3685-26.2606,22.5186-26.2606h28.9383c-3.1536,19.5963-2.3405,50.1676,2.8032,70.0085h-42.5909c3.2661-15.8674,6.8825-40.8389-.4628-40.8389-6.2941,0-5.0181,24.383-5.9569,40.8389h-26.5978c-.9388-16.4559.3504-40.8389-5.9569-40.8389-7.3453,0-3.7355,24.9648-.4628,40.8389h-34.4191c5.1371-19.8409,5.9437-50.4122,2.8033-70.0085h0Z"/>
        <path class="cls-1" d="M198.9896,271.9038h60.0913c2.3405,19.8409,17.5005,43.1727,20.9979,70.0085h-50.4122c1.1702-11.0808,1.514-17.5005,1.514-22.2872,0-4.3107-1.8644-7.1139-5.1305-7.1139s-5.1371,2.8032-5.1371,7.1139c0,4.7867.4628,11.2064,1.514,22.2872h-40.938c3.4975-27.0738,20.9979-50.2866,17.5005-70.0085h0ZM226.0634,301.5363c3.6165,0,5.1305-3.3851,5.1305-7.8213,0-5.3685-1.276-9.9172-4.8991-9.9172s-5.1371,4.5553-5.1371,9.9172c0,4.4363,1.1702,7.8213,4.8991,7.8213h.0132-.0066Z"/>
        <path class="cls-1" d="M342.4974,293.8339c-4.4363,0-7.0015,1.9834-7.0015,6.5255,0,9.6858,5.2495,23.2127,6.7701,41.5463h-48.4222c1.514-19.2525,6.7701-31.5101,6.7701-41.5463,0-4.5553-2.2148-6.5255-6.7701-6.5255s-11.0808,1.514-16.3303,3.4974l-1.1702-25.4342h83.4297l-1.1702,25.4342c-4.6677-1.9834-11.3122-3.4974-16.0988-3.4974h-.0066Z"/>
        <path class="cls-1" d="M365.373,271.9038h80.7389l-1.633,20.8855c-8.1717-2.6776-21.2426-4.0792-30.5713-4.0792-7.3585,0-9.6858,1.5206-9.6858,4.5553,0,2.3404,1.8644,3.6164,4.7867,3.6164,4.6677,0,19.6095-2.1091,29.5201-2.1091v16.2245c-11.2064,0-25.3218-1.633-30.2143-1.633-2.4462,0-3.9735,1.4016-3.9735,3.6164,0,2.909,2.0958,4.3107,10.7303,4.3107,8.1717,0,21.7054-1.4016,31.0341-3.7355l2.5719,28.3565h-83.3041c3.4974-26.8292,3.4974-50.1676,0-70.0085h0Z"/>
      </g>
    </g>
  </g>
</svg>