<?xml version="1.0" encoding="UTF-8"?>
<svg id="Ebene_1" data-name="Ebene 1" xmlns="http://www.w3.org/2000/svg" viewBox="0 0 512 512">
  <defs>
    <style>
      .cls-1 {
        fill: #73c9eb;
      }

      .cls-2 {
        fill: #1a1a1a;
      }
    </style>
  </defs>
  <rect class="cls-2" y="0" width="512" height="512" rx="88.1843" ry="88.1843"/>
  <path class="cls-1" d="M251.3368,252.8955c-13.4521-16.5566-25.3516-26.9043-40.3564-31.043-49.6699-16.04-62.0869,22.7646-94.166,12.9346-12.9346-4.6562-21.7305-17.5918-16.5566-34.666,13.4521-41.3911,88.9922-39.8389,153.1494,49.6699-1.0352-20.6953-4.6572-36.2168-13.4521-48.1172-31.0439-41.9092-64.1572-17.5913-84.3359-45.0137-7.2432-10.8652-6.7256-26.9043,7.2441-37.252,35.7002-25.8701,95.2002,19.6606,95.2002,129.3486,10.8652-17.0742,16.5566-31.5615,16.5566-46.5654,0-51.2222-40.874-51.2222-40.874-85.3706,0-13.9692,10.3477-26.3872,27.4219-26.3872,44.4961,0,65.1914,72.4355,0,161.9453,19.6611-7.7617,32.5957-16.04,41.3916-28.9746,30.5264-41.9092-2.5869-66.2266,17.0742-93.1309,8.2783-10.8652,23.7998-15.522,37.7695-4.6567,35.7002,25.3525,9.8301,96.7524-95.2002,130.3833,20.1777,5.1738,35.7002,6.209,50.7041,1.0352,49.1523-15.5215,36.2178-54.8438,68.8135-65.1919,12.9355-4.1392,27.9395,1.5522,33.1133,18.1089,13.9697,41.9092-48.6348,84.335-153.1484,50.1875,12.9346,15.5215,24.835,25.8691,39.3213,30.0088,49.6699,16.0391,62.0879-22.7656,94.166-12.9346,12.9355,4.6562,21.7305,18.1084,16.5566,35.1826-13.4521,41.3916-88.9912,39.3223-153.1484-50.7051,1.0352,21.2129,4.6562,36.7354,13.9697,48.6357,30.5264,41.9082,63.6396,18.1084,83.8174,45.0127,7.7617,11.3828,6.7266,27.4219-7.2432,37.2529-35.7002,25.8691-95.2002-19.6611-95.2002-129.3486-10.8652,17.0732-16.5566,31.5605-16.5566,46.5654,0,51.2217,40.874,51.2217,40.874,85.8877,0,13.4521-9.8311,25.8691-27.4219,25.8691-43.9785,0-64.6748-72.4355-.5176-161.4268-18.626,7.2432-32.0791,16.0391-40.874,28.4561-30.5264,41.9092,2.5869,66.2266-17.0742,93.1318-8.2783,10.8652-23.2832,15.5215-37.7695,5.1738-35.1836-25.8701-9.8311-96.7529,94.6826-130.3838-19.6611-5.6914-35.7002-6.209-50.1875-1.5518-49.1523,16.0391-36.2168,54.8438-68.8135,65.709-12.9346,4.1387-27.4219-2.0693-33.1133-18.626-13.9697-41.9092,49.1533-83.8184,154.1836-49.1533Z"/>
</svg>